# generated from PmQm by Jehee Lee
:FULLY-SPECIFIED
:DEGREES
113
root 14.9075 39.7224 3.47925 -47.3281 86.6289 -40.0746
RightUpLeg 9.89782 0.708096 1.01454
RightLeg 2.06175 8.42385 -1.04556
RightFoot -3.48213 -0.493574 5.89633
RightToes 4.07452e-010 -1.59028e-015 9.93923e-017
Spine -10.6171 -0.571184 -1.47625
Spine1 2.43953 -0.981463 1.88043
HEad -44.2698 0.804804 16.1432
LeftShoulder1 9.93923e-017 -0 1.22299e-017
LeftArm 109.846 -52.8013 -125.446
LeftForeArm 37.5945 -14.5634 -2.03148
LeftHand -1.45162 2.20004 36.7973
RightShoulder 1.98785e-016 -4.96962e-017 1.55301e-017
RightArm 68.9 47.9985 108.881
RightForeArm 55.0133 8.46994 3.43631
RightHand 8.46938 -23.8643 -36.8447
LeftUpLeg 6.2496 -0.929328 0.861553
LeftLeg 10.4837 -0.427349 4.27326
LeftFoot -7.83753 0.10064 -2.53729
LeftToes 1.53707e-010 -1.11459e-010 1.58109e-011
114
root 14.9258 39.7246 3.46129 -48.3335 86.7112 -41.0578
RightUpLeg 9.95835 0.657177 0.955765
RightLeg 2.06542 8.3792 -1.02659
RightFoot -3.44749 -0.494322 5.89566
RightToes 4.07452e-010 -1.59028e-015 9.93923e-017
Spine -10.6723 -0.567709 -1.51677
Spine1 2.39831 -0.965653 1.85368
HEad -43.1047 0.492941 16.6999
LeftShoulder1 9.93923e-017 -0 1.22299e-017
LeftArm 109.09 -53.2524 -125.825
LeftForeArm 38.8411 -14.0688 -2.35668
LeftHand -1.49285 2.11726 36.8016
RightShoulder 1.98785e-016 -4.96962e-017 1.55301e-017
RightArm 68.9586 48.5341 108.618
RightForeArm 55.0342 8.28247 3.51263
RightHand 8.60906 -23.9233 -37.4433
LeftUpLeg 6.30212 -0.939217 0.830753
LeftLeg 10.4567 -0.50039 4.24552
LeftFoot -7.77667 0.0972785 -2.44891
LeftToes 1.53707e-010 -1.11459e-010 1.58109e-011
115
root 14.9463 39.7239 3.44732 -49.6779 86.7671 -42.3211
RightUpLeg 10.0933 0.615538 0.930072
RightLeg 2.06032 8.33072 -1.00322
RightFoot -3.42888 -0.495818 5.90442
RightToes 4.07452e-010 -1.59028e-015 9.93923e-017
Spine -10.7979 -0.574954 -1.62251
Spine1 2.48262 -0.987564 1.97196
HEad -42.0584 0.487964 17.0177
LeftShoulder1 9.93923e-017 -0 1.22299e-017
LeftArm 109.685 -53.5832 -125.997
LeftForeArm 38.6991 -14.0124 -2.39838
LeftHand -1.518 2.05082 36.6611
RightShoulder 1.98785e-016 -4.96962e-017 1.55301e-017
RightArm 69.9604 48.8819 108.376
RightForeArm 53.8574 8.3661 3.49879
RightHand 8.65328 -23.9583 -37.5903
LeftUpLeg 6.40733 -0.912928 0.845554
LeftLeg 10.4607 -0.594772 4.22637
LeftFoot -7.78145 0.0951063 -2.41856
LeftToes 1.53707e-010 -1.11459e-010 1.58109e-011
116
root 14.9673 39.7202 3.43695 -50.928 86.7885 -43.5012
RightUpLeg 10.2176 0.607623 0.944917
RightLeg 2.05175 8.27682 -0.998039
RightFoot -3.44159 -0.496615 5.9119
RightToes 4.07452e-010 -1.59028e-015 9.93923e-017
Spine -10.9908 -0.61407 -1.74253
Spine1 2.62757 -1.05695 2.16907
HEad -41.2212 0.569136 17.1954
LeftShoulder1 9.93923e-017 -0 1.22299e-017
LeftArm 112.202 -53.813 -125.783
LeftForeArm 36.541 -14.5759 -2.04593
LeftHand -1.52137 2.01223 36.3791
RightShoulder 1.98785e-016 -4.96962e-017 1.55301e-017
RightArm 72.6895 49.0103 108.139
RightForeArm 51.1669 8.89793 3.31013
RightHand 8.66189 -23.9507 -37.6551
LeftUpLeg 6.48584 -0.896731 0.879208
LeftLeg 10.5049 -0.667713 4.22696
LeftFoot -7.83878 0.0955108 -2.43329
LeftToes 1.53707e-010 -1.11459e-010 1.58109e-011
117
root 14.9894 39.7148 3.42397 -52.009 86.8094 -44.5419
RightUpLeg 10.3082 0.594604 0.945563
RightLeg 2.05021 8.23879 -0.991976
RightFoot -3.48542 -0.495599 5.91096
RightToes 4.07452e-010 -1.59028e-015 9.93923e-017
Spine -11.2103 -0.659545 -1.82189
Spine1 2.79979 -1.12948 2.32551
HEad -40.7042 0.362227 17.4014
LeftShoulder1 9.93923e-017 -0 1.22299e-017
LeftArm 117.458 -53.9414 -124.74
LeftForeArm 30.9212 -15.9373 -1.0513
LeftHand -1.53114 1.95149 36.0228
RightShoulder 1.98785e-016 -4.96962e-017 1.55301e-017
RightArm 78.4521 48.8526 107.36
RightForeArm 45.259 10.2817 2.62851
RightHand 8.74876 -23.942 -38.1372
LeftUpLeg 6.53474 -0.918815 0.88467
LeftLeg 10.5567 -0.716688 4.24635
LeftFoot -7.91538 0.0952158 -2.45433
LeftToes 1.53707e-010 -1.11459e-010 1.58109e-011
118
root 15.0107 39.7076 3.40764 -53.455 86.8685 -45.9494
RightUpLeg 10.3886 0.551127 0.91009
RightLeg 2.07391 8.19645 -0.97184
RightFoot -3.55828 -0.493582 5.91669
RightToes 4.07452e-010 -1.59028e-015 9.93923e-017
Spine -11.4544 -0.689475 -1.91701
Spine1 3.08309 -1.18596 2.48104
HEad -40.5087 -0.0266954 17.5037
LeftShoulder1 9.93923e-017 -0 1.22299e-017
LeftArm 125.79 -54.0884 -122.552
LeftForeArm 20.7503 -18.0216 0.894492
LeftHand -1.57254 1.82112 35.6386
RightShoulder 1.98785e-016 -4.96962e-017 1.55301e-017
RightArm 88.3231 48.407 105.427
RightForeArm 33.672 12.7005 0.896583
RightHand 8.99475 -24.0556 -39.1376
LeftUpLeg 6.57581 -0.986304 0.857694
LeftLeg 10.6192 -0.754407 4.27016
LeftFoot -8.01503 0.0923677 -2.45705
LeftToes 1.53707e-010 -1.11459e-010 1.58109e-011
